<svg id="Ñëîé_1" data-name="Ñëîé 1" xmlns="http://www.w3.org/2000/svg" xmlns:xlink="http://www.w3.org/1999/xlink" viewBox="0 0 400 400"><defs><style>.cls-1{mask:url(#mask);filter:url(#luminosity-noclip-12);}.cls-10,.cls-12,.cls-14,.cls-16,.cls-18,.cls-2,.cls-20,.cls-22,.cls-4,.cls-6,.cls-8{mix-blend-mode:multiply;}.cls-2{fill:url(#Áåçûìÿííûé_ãðàäèåíò_14);}.cls-3{mask:url(#mask-2);filter:url(#luminosity-noclip-17);}.cls-4{fill:url(#Áåçûìÿííûé_ãðàäèåíò_9);}.cls-5{mask:url(#mask-3);filter:url(#luminosity-noclip-18);}.cls-6{fill:url(#Áåçûìÿííûé_ãðàäèåíò_7);}.cls-7{mask:url(#mask-4);filter:url(#luminosity-noclip-19);}.cls-8{fill:url(#Áåçûìÿííûé_ãðàäèåíò_5);}.cls-9{mask:url(#mask-5);filter:url(#luminosity-noclip-20);}.cls-10{fill:url(#Áåçûìÿííûé_ãðàäèåíò_4);}.cls-11{mask:url(#mask-6);filter:url(#luminosity-noclip-21);}.cls-12{fill:url(#Áåçûìÿííûé_ãðàäèåíò_3);}.cls-13{mask:url(#mask-7);filter:url(#luminosity-noclip-13);}.cls-14{fill:url(#Áåçûìÿííûé_ãðàäèåíò_13);}.cls-15{mask:url(#mask-8);filter:url(#luminosity-noclip-22);}.cls-16{fill:url(#Áåçûìÿííûé_ãðàäèåíò_2);}.cls-17{mask:url(#mask-9);filter:url(#luminosity-noclip-14);}.cls-18{fill:url(#Áåçûìÿííûé_ãðàäèåíò_12);}.cls-19{mask:url(#mask-10);filter:url(#luminosity-noclip-15);}.cls-20{fill:url(#Áåçûìÿííûé_ãðàäèåíò_11);}.cls-21{mask:url(#mask-11);filter:url(#luminosity-noclip-16);}.cls-22{fill:url(#Áåçûìÿííûé_ãðàäèåíò_10);}.cls-23{fill:#f3a396;}.cls-24{fill:#1a1a1a;}.cls-25,.cls-28,.cls-29,.cls-30{fill:none;}.cls-25,.cls-30{stroke:#d26665;}.cls-25,.cls-28,.cls-30{stroke-linecap:round;stroke-linejoin:round;}.cls-25{stroke-width:0.51px;}.cls-26,.cls-27{fill:#fff;}.cls-27{opacity:0.19;}.cls-28,.cls-29{stroke:#1a1a1a;}.cls-28{stroke-width:0.4px;}.cls-29{stroke-miterlimit:10;stroke-width:0.43px;}.cls-30{stroke-width:0.7px;}.cls-31{opacity:0.35;}.cls-32{fill:#6abfb0;}.cls-33{mask:url(#mask-12);}.cls-34,.cls-36,.cls-38,.cls-40{opacity:0.68;}.cls-34{fill:url(#linear-gradient);}.cls-35{mask:url(#mask-13);}.cls-36{fill:url(#linear-gradient-2);}.cls-37{mask:url(#mask-14);}.cls-38{fill:url(#linear-gradient-3);}.cls-39{mask:url(#mask-15);}.cls-40{fill:url(#linear-gradient-4);}.cls-41{fill:#c5fff4;}.cls-42{fill:#004e15;}.cls-43{mask:url(#mask-16);}.cls-44{fill:url(#Áåçûìÿííûé_ãðàäèåíò_92);}.cls-45{mask:url(#mask-17);}.cls-46{fill:#cfe6e9;}.cls-47,.cls-55,.cls-68{fill:#00898d;}.cls-48{fill:#3c4092;}.cls-49{fill:#004345;}.cls-50{fill:#292c65;}.cls-51{fill:#201a3d;}.cls-52,.cls-57{fill:#232047;}.cls-53{fill:url(#Áåçûìÿííûé_ãðàäèåíò_65);}.cls-54{fill:url(#Áåçûìÿííûé_ãðàäèåíò_65-2);}.cls-55,.cls-57{opacity:0.32;}.cls-56{fill:url(#Áåçûìÿííûé_ãðàäèåíò_65-3);}.cls-58{mask:url(#mask-18);}.cls-59{opacity:0.31;fill:url(#Áåçûìÿííûé_ãðàäèåíò_92-2);}.cls-60{mask:url(#mask-19);}.cls-61,.cls-77,.cls-79{opacity:0.66;}.cls-61{fill:url(#Áåçûìÿííûé_ãðàäèåíò_92-3);}.cls-62{fill:url(#Áåçûìÿííûé_ãðàäèåíò_65-4);}.cls-63{fill:url(#Áåçûìÿííûé_ãðàäèåíò_65-5);}.cls-64{fill:#ffd400;}.cls-65{fill:url(#Áåçûìÿííûé_ãðàäèåíò_609);}.cls-66{mask:url(#mask-20);}.cls-67{fill:url(#Áåçûìÿííûé_ãðàäèåíò_614);}.cls-68{opacity:0.58;}.cls-69{fill:#ffb600;}.cls-70{fill:#35a592;}.cls-71{fill:#020023;}.cls-72{fill:url(#Áåçûìÿííûé_ãðàäèåíò_6);}.cls-73{fill:#ffb68e;}.cls-74{fill:#ef8b59;}.cls-75{fill:#dd2400;}.cls-76{mask:url(#mask-21);}.cls-77{fill:url(#Áåçûìÿííûé_ãðàäèåíò_92-4);}.cls-78{mask:url(#mask-22);}.cls-79{fill:url(#Áåçûìÿííûé_ãðàäèåíò_92-5);}.cls-80{fill:#050023;}.cls-81{filter:url(#luminosity-noclip-11);}.cls-82{filter:url(#luminosity-noclip-10);}.cls-83{filter:url(#luminosity-noclip-9);}.cls-84{filter:url(#luminosity-noclip-8);}.cls-85{filter:url(#luminosity-noclip-7);}.cls-86{filter:url(#luminosity-noclip-6);}.cls-87{filter:url(#luminosity-noclip-5);}.cls-88{filter:url(#luminosity-noclip-4);}.cls-89{filter:url(#luminosity-noclip-3);}.cls-90{filter:url(#luminosity-noclip-2);}.cls-91{filter:url(#luminosity-noclip);}</style><filter id="luminosity-noclip" x="324.05" y="-8392" width="30.58" height="32766" filterUnits="userSpaceOnUse" color-interpolation-filters="sRGB"><feFlood flood-color="#fff" result="bg"/><feBlend in="SourceGraphic" in2="bg"/></filter><mask id="mask" x="324.05" y="-8392" width="30.58" height="32766" maskUnits="userSpaceOnUse"><g class="cls-91"/></mask><linearGradient id="Áåçûìÿííûé_ãðàäèåíò_14" x1="335.36" y1="141.36" x2="366.22" y2="141.36" gradientTransform="translate(-20.5 11.75) rotate(-3.88)" gradientUnits="userSpaceOnUse"><stop offset="0.06" stop-color="#fff"/><stop offset="0.43" stop-color="#a3a3a3"/><stop offset="1"/></linearGradient><filter id="luminosity-noclip-2" x="0.18" y="-8392" width="299.38" height="32766" filterUnits="userSpaceOnUse" color-interpolation-filters="sRGB"><feFlood flood-color="#fff" result="bg"/><feBlend in="SourceGraphic" in2="bg"/></filter><mask id="mask-2" x="0.18" y="-8392" width="299.38" height="32766" maskUnits="userSpaceOnUse"><g class="cls-90"/></mask><linearGradient id="Áåçûìÿííûé_ãðàäèåíò_9" x1="15.69" y1="418.67" x2="262.48" y2="213.59" gradientTransform="matrix(1, 0, 0, 1, 0, 0)" xlink:href="#Áåçûìÿííûé_ãðàäèåíò_14"/><filter id="luminosity-noclip-3" x="274.62" y="-8392" width="50.51" height="32766" filterUnits="userSpaceOnUse" color-interpolation-filters="sRGB"><feFlood flood-color="#fff" result="bg"/><feBlend in="SourceGraphic" in2="bg"/></filter><mask id="mask-3" x="274.62" y="-8392" width="50.51" height="32766" maskUnits="userSpaceOnUse"><g class="cls-89"/></mask><linearGradient id="Áåçûìÿííûé_ãðàäèåíò_7" x1="207.72" y1="2.53" x2="218.6" y2="-5.94" gradientTransform="matrix(-0.77, -0.64, -0.64, 0.77, 460.8, 222.5)" xlink:href="#Áåçûìÿííûé_ãðàäèåíò_14"/><filter id="luminosity-noclip-4" x="240.67" y="-8392" width="36.76" height="32766" filterUnits="userSpaceOnUse" color-interpolation-filters="sRGB"><feFlood flood-color="#fff" result="bg"/><feBlend in="SourceGraphic" in2="bg"/></filter><mask id="mask-4" x="240.67" y="-8392" width="36.76" height="32766" maskUnits="userSpaceOnUse"><g class="cls-88"/></mask><linearGradient id="Áåçûìÿííûé_ãðàäèåíò_5" x1="217.68" y1="54.73" x2="232.06" y2="43.54" gradientTransform="matrix(-0.77, -0.64, -0.64, 0.77, 460.8, 222.5)" xlink:href="#Áåçûìÿííûé_ãðàäèåíò_14"/><filter id="luminosity-noclip-5" x="269.3" y="-8392" width="13.02" height="32766" filterUnits="userSpaceOnUse" color-interpolation-filters="sRGB"><feFlood flood-color="#fff" result="bg"/><feBlend in="SourceGraphic" in2="bg"/></filter><mask id="mask-5" x="269.3" y="-8392" width="13.02" height="32766" maskUnits="userSpaceOnUse"><g class="cls-87"/></mask><linearGradient id="Áåçûìÿííûé_ãðàäèåíò_4" x1="122.8" y1="-47.5" x2="130.87" y2="-32.05" gradientTransform="matrix(0.51, 0.67, -0.53, 0.4, 192, 58.07)" gradientUnits="userSpaceOnUse"><stop offset="0.06" stop-color="#fff"/><stop offset="1"/></linearGradient><filter id="luminosity-noclip-6" x="233.88" y="-8392" width="19.34" height="32766" filterUnits="userSpaceOnUse" color-interpolation-filters="sRGB"><feFlood flood-color="#fff" result="bg"/><feBlend in="SourceGraphic" in2="bg"/></filter><mask id="mask-6" x="233.88" y="-8392" width="19.34" height="32766" maskUnits="userSpaceOnUse"><g class="cls-86"/></mask><linearGradient id="Áåçûìÿííûé_ãðàäèåíò_3" x1="250.94" y1="58.02" x2="270.54" y2="58.02" xlink:href="#Áåçûìÿííûé_ãðàäèåíò_14"/><filter id="luminosity-noclip-7" x="132.98" y="-8392" width="24.12" height="32766" filterUnits="userSpaceOnUse" color-interpolation-filters="sRGB"><feFlood flood-color="#fff" result="bg"/><feBlend in="SourceGraphic" in2="bg"/></filter><mask id="mask-7" x="132.98" y="-8392" width="24.12" height="32766" maskUnits="userSpaceOnUse"><g class="cls-85"/></mask><linearGradient id="Áåçûìÿííûé_ãðàäèåíò_13" x1="148.51" y1="73.78" x2="172.85" y2="73.78" xlink:href="#Áåçûìÿííûé_ãðàäèåíò_14"/><filter id="luminosity-noclip-8" x="256.71" y="-8392" width="4.64" height="32766" filterUnits="userSpaceOnUse" color-interpolation-filters="sRGB"><feFlood flood-color="#fff" result="bg"/><feBlend in="SourceGraphic" in2="bg"/></filter><mask id="mask-8" x="256.71" y="-8392" width="4.64" height="32766" maskUnits="userSpaceOnUse"><g class="cls-84"/></mask><linearGradient id="Áåçûìÿííûé_ãðàäèåíò_2" x1="274.19" y1="59.16" x2="278.11" y2="59.16" xlink:href="#Áåçûìÿííûé_ãðàäèåíò_14"/><filter id="luminosity-noclip-9" x="66.29" y="-8392" width="71.48" height="32766" filterUnits="userSpaceOnUse" color-interpolation-filters="sRGB"><feFlood flood-color="#fff" result="bg"/><feBlend in="SourceGraphic" in2="bg"/></filter><mask id="mask-9" x="66.29" y="-8392" width="71.48" height="32766" maskUnits="userSpaceOnUse"><g class="cls-83"/></mask><linearGradient id="Áåçûìÿííûé_ãðàäèåíò_12" x1="68.67" y1="170.83" x2="139.39" y2="170.83" gradientTransform="matrix(0.99, 0.13, -0.11, 0.81, 18.45, 30.73)" xlink:href="#Áåçûìÿííûé_ãðàäèåíò_14"/><filter id="luminosity-noclip-10" x="282.55" y="-8392" width="63.93" height="32766" filterUnits="userSpaceOnUse" color-interpolation-filters="sRGB"><feFlood flood-color="#fff" result="bg"/><feBlend in="SourceGraphic" in2="bg"/></filter><mask id="mask-10" x="282.55" y="-8392" width="63.93" height="32766" maskUnits="userSpaceOnUse"><g class="cls-82"/></mask><linearGradient id="Áåçûìÿííûé_ãðàäèåíò_11" x1="279.6" y1="260.04" x2="343.45" y2="260.04" gradientTransform="matrix(1, 0.01, -0.01, 1, 6.77, -10.91)" xlink:href="#Áåçûìÿííûé_ãðàäèåíò_14"/><filter id="luminosity-noclip-11" x="102.96" y="-8392" width="1.46" height="32766" filterUnits="userSpaceOnUse" color-interpolation-filters="sRGB"><feFlood flood-color="#fff" result="bg"/><feBlend in="SourceGraphic" in2="bg"/></filter><mask id="mask-11" x="102.96" y="-8392" width="1.46" height="32766" maskUnits="userSpaceOnUse"><g class="cls-81"/></mask><linearGradient id="Áåçûìÿííûé_ãðàäèåíò_10" x1="103.1" y1="344.13" x2="104.5" y2="342.96" gradientTransform="matrix(1, 0, 0, 1, 0, 0)" xlink:href="#Áåçûìÿííûé_ãðàäèåíò_14"/><filter id="luminosity-noclip-12" x="324.05" y="119.93" width="30.58" height="19.3" filterUnits="userSpaceOnUse" color-interpolation-filters="sRGB"><feFlood flood-color="#fff" result="bg"/><feBlend in="SourceGraphic" in2="bg"/></filter><mask id="mask-12" x="324.05" y="119.93" width="30.58" height="19.3" maskUnits="userSpaceOnUse"><g class="cls-1"><path class="cls-2" d="M327.88,139.23l21-1.83c5.21-.46,7.7-6.88,3.94-10.51a6.48,6.48,0,0,0-4.75-1.79,6.85,6.85,0,0,0-6.68,4.91s-.61-12.56-8.38-9.64c-8,3-2,11.75-2,11.75s-7.25,1.46-6.95,4.16S327.88,139.23,327.88,139.23Z"/></g></mask><linearGradient id="linear-gradient" x1="335.36" y1="141.36" x2="366.22" y2="141.36" gradientTransform="translate(-20.5 11.75) rotate(-3.88)" gradientUnits="userSpaceOnUse"><stop offset="0.06" stop-color="#fff"/><stop offset="0.15" stop-color="#fff"/><stop offset="0.93" stop-color="#1affff"/></linearGradient><filter id="luminosity-noclip-13" x="132.98" y="67.28" width="24.12" height="15.22" filterUnits="userSpaceOnUse" color-interpolation-filters="sRGB"><feFlood flood-color="#fff" result="bg"/><feBlend in="SourceGraphic" in2="bg"/></filter><mask id="mask-13" x="132.98" y="67.28" width="24.12" height="15.22" maskUnits="userSpaceOnUse"><g class="cls-13"><path class="cls-14" d="M136,82.51l16.57-1.45a4.88,4.88,0,0,0,3.11-8.28,5.13,5.13,0,0,0-3.75-1.42,5.41,5.41,0,0,0-5.27,3.87s-.48-9.9-6.61-7.6c-6.28,2.35-1.57,9.27-1.57,9.27s-5.72,1.15-5.48,3.28S136,82.51,136,82.51Z"/></g></mask><linearGradient id="linear-gradient-2" x1="148.51" y1="73.78" x2="172.85" y2="73.78" xlink:href="#linear-gradient"/><filter id="luminosity-noclip-14" x="66.29" y="160.85" width="71.48" height="43.4" filterUnits="userSpaceOnUse" color-interpolation-filters="sRGB"><feFlood flood-color="#fff" result="bg"/><feBlend in="SourceGraphic" in2="bg"/></filter><mask id="mask-14" x="66.29" y="160.85" width="71.48" height="43.4" maskUnits="userSpaceOnUse"><g class="cls-17"><path class="cls-18" d="M72.12,201.56l54.75,2.69s11.58-7,10.86-16.17-17.37-3.81-19-2.55,3-22.23-18.9-24.56S86.59,189.88,83.19,189.8s-9.62-6-14.06-4S65.28,196.69,72.12,201.56Z"/></g></mask><linearGradient id="linear-gradient-3" x1="68.67" y1="170.83" x2="139.39" y2="170.83" gradientTransform="matrix(0.99, 0.13, -0.11, 0.81, 18.45, 30.73)" xlink:href="#linear-gradient"/><filter id="luminosity-noclip-15" x="282.55" y="237.17" width="63.93" height="32.19" filterUnits="userSpaceOnUse" color-interpolation-filters="sRGB"><feFlood flood-color="#fff" result="bg"/><feBlend in="SourceGraphic" in2="bg"/></filter><mask id="mask-15" x="282.55" y="237.17" width="63.93" height="32.19" maskUnits="userSpaceOnUse"><g class="cls-19"><path class="cls-20" d="M287.16,269.36l53.42-2.84s8.85-6.66,4.86-12.69c-5.91-9-21.17-.7-22.56.42s.34-20.16-17-16.7c-18.31,3.65-8.23,24.83-9.35,21.71-1.73-4.77-6-5.67-10.05-3.77S279.94,266.2,287.16,269.36Z"/></g></mask><linearGradient id="linear-gradient-4" x1="279.6" y1="260.04" x2="343.45" y2="260.04" gradientTransform="matrix(1, 0.01, -0.01, 1, 6.77, -10.91)" xlink:href="#linear-gradient"/><filter id="luminosity-noclip-16" x="102.96" y="342.52" width="1.46" height="2.67" filterUnits="userSpaceOnUse" color-interpolation-filters="sRGB"><feFlood flood-color="#fff" result="bg"/><feBlend in="SourceGraphic" in2="bg"/></filter><mask id="mask-16" x="102.96" y="342.52" width="1.46" height="2.67" maskUnits="userSpaceOnUse"><g class="cls-21"><path class="cls-22" d="M103.91,345.18c-.3-.9-.61-1.79-1-2.66.48.28,1,.55,1.46.81C104.23,343.94,104.07,344.56,103.91,345.18Z"/></g></mask><linearGradient id="Áåçûìÿííûé_ãðàäèåíò_92" x1="103.1" y1="344.13" x2="104.5" y2="342.96" gradientUnits="userSpaceOnUse"><stop offset="0.06" stop-color="#fff"/><stop offset="0.43" stop-color="#fff"/><stop offset="1" stop-color="#fff"/></linearGradient><filter id="luminosity-noclip-17" x="0.18" y="208.37" width="299.38" height="191.63" filterUnits="userSpaceOnUse" color-interpolation-filters="sRGB"><feFlood flood-color="#fff" result="bg"/><feBlend in="SourceGraphic" in2="bg"/></filter><mask id="mask-17" x="0.18" y="208.37" width="299.38" height="191.63" maskUnits="userSpaceOnUse"><g class="cls-3"><path class="cls-4" d="M299.54,391.74a11.66,11.66,0,0,0-22.83-2.6,37.13,37.13,0,0,0-17.2-4.2c-.79,0-1.58,0-2.36.08v-.08a21.27,21.27,0,0,0-28.94-19.89,13.39,13.39,0,0,0,.09-1.43A11.66,11.66,0,1,0,212,374.33h-.25a18,18,0,0,0-9.1,2.47,23.31,23.31,0,0,0-17.55-19.47c0-.77.07-1.55.07-2.33a41,41,0,0,0-11-28,46.59,46.59,0,0,1-9-49.62l.18-.42c9.65-22.59,30.91-46.38,35.44-52.46a1.78,1.78,0,1,0-2.89-2.06c-4,5.29-21.33,25.63-45.3,41.64-8,5.32-19.55,7.25-30.61,7.65-13.34.48-26.24-4.12-36.92-12.13a38.54,38.54,0,0,0-32.91-6.42,23.4,23.4,0,0,0,.14-2.53,22.32,22.32,0,0,0-17.84-21.86,18.8,18.8,0,0,0,.18-2.39A18,18,0,0,0,.18,219.17V400H159.54a41.35,41.35,0,0,0,.87-6.23,23.9,23.9,0,0,0,2.45,2.91,23.2,23.2,0,0,0,4.21,3.32h24.74a22.85,22.85,0,0,0,2.76-2,19,19,0,0,0,.8,2H296.73A11.57,11.57,0,0,0,299.54,391.74Z"/></g></mask><linearGradient id="Áåçûìÿííûé_ãðàäèåíò_65" x1="179.53" y1="80.02" x2="218.14" y2="80.02" gradientTransform="matrix(-0.77, -0.64, -0.64, 0.77, 460.8, 222.5)" gradientUnits="userSpaceOnUse"><stop offset="0.09" stop-color="#9cd9c7"/><stop offset="0.87" stop-color="#daffc8"/></linearGradient><linearGradient id="Áåçûìÿííûé_ãðàäèåíò_65-2" x1="201.1" y1="122.44" x2="212.39" y2="106.31" gradientTransform="matrix(1, 0, 0, -1, 28.9, 316.56)" xlink:href="#Áåçûìÿííûé_ãðàäèåíò_65"/><linearGradient id="Áåçûìÿííûé_ãðàäèåíò_65-3" x1="193.91" y1="53.23" x2="219.91" y2="53.23" xlink:href="#Áåçûìÿííûé_ãðàäèåíò_65"/><filter id="luminosity-noclip-18" x="274.62" y="74.63" width="50.51" height="33.49" filterUnits="userSpaceOnUse" color-interpolation-filters="sRGB"><feFlood flood-color="#fff" result="bg"/><feBlend in="SourceGraphic" in2="bg"/></filter><mask id="mask-18" x="274.62" y="74.63" width="50.51" height="33.49" maskUnits="userSpaceOnUse"><g class="cls-5"><path class="cls-6" d="M321.52,77.76S303.6,86,291.8,95s-14.9,13.18-14.9,13.18l-2.28-3.29s14-13.47,30.07-21.26,20.89-9.79,20.41-8.65S321.52,77.76,321.52,77.76Z"/></g></mask><linearGradient id="Áåçûìÿííûé_ãðàäèåíò_92-2" x1="207.72" y1="2.53" x2="218.6" y2="-5.94" gradientTransform="matrix(-0.77, -0.64, -0.64, 0.77, 460.8, 222.5)" xlink:href="#Áåçûìÿííûé_ãðàäèåíò_92"/><filter id="luminosity-noclip-19" x="240.67" y="106.66" width="36.76" height="36.66" filterUnits="userSpaceOnUse" color-interpolation-filters="sRGB"><feFlood flood-color="#fff" result="bg"/><feBlend in="SourceGraphic" in2="bg"/></filter><mask id="mask-19" x="240.67" y="106.66" width="36.76" height="36.66" maskUnits="userSpaceOnUse"><g class="cls-7"><path class="cls-8" d="M277.44,110.87s-9.34,8.89-15.94,15.74-14.88,16.7-14.88,16.7l-6-4s13.93-13.91,22.67-22.43c7.9-7.72,10.94-10.25,10.94-10.25Z"/></g></mask><linearGradient id="Áåçûìÿííûé_ãðàäèåíò_92-3" x1="217.68" y1="54.73" x2="232.06" y2="43.54" gradientTransform="matrix(-0.77, -0.64, -0.64, 0.77, 460.8, 222.5)" xlink:href="#Áåçûìÿííûé_ãðàäèåíò_92"/><linearGradient id="Áåçûìÿííûé_ãðàäèåíò_65-4" x1="200.99" y1="124.29" x2="211.72" y2="108.96" gradientTransform="matrix(1, 0, 0, -1, 27.82, 319.54)" xlink:href="#Áåçûìÿííûé_ãðàäèåíò_65"/><linearGradient id="Áåçûìÿííûé_ãðàäèåíò_65-5" x1="200.85" y1="130.15" x2="210.9" y2="115.79" gradientTransform="matrix(1, 0, 0, -1, 24.18, 329.54)" xlink:href="#Áåçûìÿííûé_ãðàäèåíò_65"/><linearGradient id="Áåçûìÿííûé_ãðàäèåíò_609" x1="271.85" y1="40.17" x2="285.05" y2="49.43" gradientTransform="matrix(-0.77, -0.64, -0.64, 0.77, 514.14, 285.24)" gradientUnits="userSpaceOnUse"><stop offset="0.17" stop-color="#e0f3f4"/><stop offset="0.79" stop-color="#4d98a0"/></linearGradient><filter id="luminosity-noclip-20" x="269.3" y="124.75" width="13.02" height="6.08" filterUnits="userSpaceOnUse" color-interpolation-filters="sRGB"><feFlood flood-color="#fff" result="bg"/><feBlend in="SourceGraphic" in2="bg"/></filter><mask id="mask-20" x="269.3" y="124.75" width="13.02" height="6.08" maskUnits="userSpaceOnUse"><g class="cls-9"><path class="cls-10" d="M269.3,130.82s1.7-7.32,7.48-5.89a7.7,7.7,0,0,1,5.54,5.1,14.65,14.65,0,0,0-5.54-2.19C271.51,127.15,270.06,130.08,269.3,130.82Z"/></g></mask><linearGradient id="Áåçûìÿííûé_ãðàäèåíò_614" x1="122.8" y1="-47.5" x2="130.87" y2="-32.05" gradientTransform="matrix(0.51, 0.67, -0.53, 0.4, 192, 58.07)" gradientUnits="userSpaceOnUse"><stop offset="0.06" stop-color="#fff"/><stop offset="1" stop-color="#fff"/></linearGradient><linearGradient id="Áåçûìÿííûé_ãðàäèåíò_6" x1="218.69" y1="97.5" x2="225.85" y2="97.5" gradientTransform="translate(-20.5 11.75) rotate(-3.88)" gradientUnits="userSpaceOnUse"><stop offset="0.12" stop-color="#0a2d51"/><stop offset="1" stop-color="#0a2d51"/></linearGradient><filter id="luminosity-noclip-21" x="233.88" y="49.64" width="19.34" height="4.46" filterUnits="userSpaceOnUse" color-interpolation-filters="sRGB"><feFlood flood-color="#fff" result="bg"/><feBlend in="SourceGraphic" in2="bg"/></filter><mask id="mask-21" x="233.88" y="49.64" width="19.34" height="4.46" maskUnits="userSpaceOnUse"><g class="cls-11"><path class="cls-12" d="M233.88,54.1s5-.24,9.5-.38,9.84-4.08,9.84-4.08Z"/></g></mask><linearGradient id="Áåçûìÿííûé_ãðàäèåíò_92-4" x1="250.94" y1="58.02" x2="270.54" y2="58.02" gradientTransform="translate(-20.5 11.75) rotate(-3.88)" xlink:href="#Áåçûìÿííûé_ãðàäèåíò_92"/><filter id="luminosity-noclip-22" x="256.71" y="46.54" width="4.64" height="10.95" filterUnits="userSpaceOnUse" color-interpolation-filters="sRGB"><feFlood flood-color="#fff" result="bg"/><feBlend in="SourceGraphic" in2="bg"/></filter><mask id="mask-22" x="256.71" y="46.54" width="4.64" height="10.95" maskUnits="userSpaceOnUse"><g class="cls-15"><path class="cls-16" d="M256.71,47s1.65,4.8,2.55,6.92a16.12,16.12,0,0,0,2.09,3.55l-2-11Z"/></g></mask><linearGradient id="Áåçûìÿííûé_ãðàäèåíò_92-5" x1="274.19" y1="59.16" x2="278.11" y2="59.16" gradientTransform="translate(-20.5 11.75) rotate(-3.88)" xlink:href="#Áåçûìÿííûé_ãðàäèåíò_92"/></defs><title>rocket launch</title><path class="cls-23" d="M189.15,65.7h7.31a0,0,0,0,1,0,0V75.91a3.38,3.38,0,0,1-3.38,3.38h-.56a3.38,3.38,0,0,1-3.38-3.38V65.7A0,0,0,0,1,189.15,65.7Z"/><path class="cls-24" d="M192.7,67.34s.35,4.71,3.76,6V69.81l-3.94-2.32"/><path class="cls-23" d="M197.36,71.4h0a5.14,5.14,0,0,1-5.07-5.22V56.74l4.68-.49c1.75,0,4.08,3.08,4.08,4.88v6.48A3.74,3.74,0,0,1,197.36,71.4Z"/><path class="cls-23" d="M200.74,62.53l1.67,2.84a.43.43,0,0,1-.35.68h-2.51Z"/><path class="cls-24" d="M198.44,56.44A22.89,22.89,0,0,0,193,54.93a5.13,5.13,0,0,0-3.48.41,5.77,5.77,0,0,0-3,2.71c-1.87,3.75,1.78,7.58,1.78,7.58l.43,4.18c3.43,0,5.05-3.68,5.05-3.68l-.21-6.39,0,0,.86-2.08,2-.38S202.19,57.83,198.44,56.44Z"/><path class="cls-24" d="M201.21,59.67c-2.17,1-5.71-.75-6.92-1.46,0,2,.75,2.83-.68,5.33,0,0-3.49-4.91-3.21-5.73l-.46,0s.51-3.15,3.13-4.09a1.31,1.31,0,0,1,1.46.35.66.66,0,0,1,.17.46c1.55-.94,5.86-1.89,7.3-.53A3.52,3.52,0,0,1,201.21,59.67Z"/><circle class="cls-24" cx="199.71" cy="62.91" r="0.52"/><line class="cls-25" x1="200.65" y1="63.48" x2="199.35" y2="64.34"/><path class="cls-24" d="M200.59,61.71l0-1-1.89,0a1,1,0,0,0-.65.25l-.75.86,1.25-.18Z"/><path class="cls-26" d="M201.05,66.67h-2.19A2.22,2.22,0,0,0,201,67.86,5.82,5.82,0,0,0,201.05,66.67Z"/><path class="cls-27" d="M201.16,63.44a2,2,0,1,1-1.94-2.26A2.12,2.12,0,0,1,201.16,63.44Z"/><path class="cls-28" d="M201.16,63.44a2,2,0,1,1-1.94-2.26A2.12,2.12,0,0,1,201.16,63.44Z"/><line class="cls-29" x1="197.27" y1="63.44" x2="193.61" y2="63.44"/><path class="cls-23" d="M193.66,66.24c-1.43.88-3.92-3.12-2.52-4.07s2.28.81,2.28.81l.42,1.36-.13,1.47.07.43Z"/><path class="cls-30" d="M191.76,63.37s.94-.28,1.6,1"/><path class="cls-30" d="M192.91,63.74s-1,.5-.35,1.26"/><g class="cls-31"><path class="cls-32" d="M164.18,164a1.26,1.26,0,0,1-1.25-1.17l-.62-8.77L154,157.88a1.26,1.26,0,0,1-1-2.29l10-4.52a1.25,1.25,0,0,1,1.77,1.05l.74,10.57a1.24,1.24,0,0,1-1.16,1.34Z"/></g><g class="cls-31"><path class="cls-32" d="M85.23,240.66a1.24,1.24,0,0,1-.69-.21,1.26,1.26,0,0,1-.36-1.74l28-42.73a1.26,1.26,0,0,1,2.16.1l5,9.26L136,171.09a1.26,1.26,0,0,1,2.2-.12l6.19,9.87L158,158.67a1.25,1.25,0,0,1,2.13,1.32l-14.74,23.89a1.28,1.28,0,0,1-1.06.6h0a1.27,1.27,0,0,1-1.06-.59l-6.06-9.67-16.66,34.43a1.26,1.26,0,0,1-1.1.71,1.32,1.32,0,0,1-1.13-.66l-5.17-9.58-26.89,41A1.25,1.25,0,0,1,85.23,240.66Z"/></g><g class="cls-31"><path class="cls-32" d="M333.31,184.07A1.33,1.33,0,0,1,332,183l-2.69-14-12.66,7.66a1.33,1.33,0,0,1-1.38-2.28l14.3-8.66a1.34,1.34,0,0,1,1.23-.07,1.3,1.3,0,0,1,.77,1l3,15.89a1.33,1.33,0,0,1-1.05,1.56A1.15,1.15,0,0,1,333.31,184.07Z"/></g><g class="cls-31"><path class="cls-32" d="M225.24,302.9a1.22,1.22,0,0,1-.52-.11,1.26,1.26,0,0,1-.62-1.67l24.34-52.81a1.21,1.21,0,0,1,1.17-.73,1.27,1.27,0,0,1,1.14.8l5.19,13.22,14.67-43a1.25,1.25,0,0,1,2.42.16l5.54,27.57,14.33-50.49a1.26,1.26,0,0,1,1.16-.91,1.24,1.24,0,0,1,1.23.82l8.87,24,19.44-42.08a1.26,1.26,0,0,1,2.28,1l-20.71,44.83a1.25,1.25,0,0,1-2.31-.09l-8.59-23.21L279.57,252a1.25,1.25,0,0,1-2.44-.09l-5.65-28.1-14.27,41.84a1.25,1.25,0,0,1-1.16.85h0a1.26,1.26,0,0,1-1.17-.8L249.49,252l-23.11,50.13A1.25,1.25,0,0,1,225.24,302.9Z"/></g><g class="cls-33"><path class="cls-34" d="M327.88,139.23l21-1.83c5.21-.46,7.7-6.88,3.94-10.51a6.48,6.48,0,0,0-4.75-1.79,6.85,6.85,0,0,0-6.68,4.91s-.61-12.56-8.38-9.64c-8,3-2,11.75-2,11.75s-7.25,1.46-6.95,4.16S327.88,139.23,327.88,139.23Z"/></g><g class="cls-35"><path class="cls-36" d="M136,82.51l16.57-1.45a4.88,4.88,0,0,0,3.11-8.28,5.13,5.13,0,0,0-3.75-1.42,5.41,5.41,0,0,0-5.27,3.87s-.48-9.9-6.61-7.6c-6.28,2.35-1.57,9.27-1.57,9.27s-5.72,1.15-5.48,3.28S136,82.51,136,82.51Z"/></g><g class="cls-37"><path class="cls-38" d="M72.12,201.56l54.75,2.69s11.58-7,10.86-16.17-17.37-3.81-19-2.55,3-22.23-18.9-24.56S86.59,189.88,83.19,189.8s-9.62-6-14.06-4S65.28,196.69,72.12,201.56Z"/></g><g class="cls-39"><path class="cls-40" d="M287.16,269.36l53.42-2.84s8.85-6.66,4.86-12.69c-5.91-9-21.17-.7-22.56.42s.34-20.16-17-16.7c-18.31,3.65-8.23,24.83-9.35,21.71-1.73-4.77-6-5.67-10.05-3.77S279.94,266.2,287.16,269.36Z"/></g><path class="cls-41" d="M104.65,97.44s7.43-2.27,11.79-6.89c5-5.25,4.72-8.57,4.72-8.57l14.75,7.07s0,2.71-3.95,8.69a23.51,23.51,0,0,1-11.59,9.63c-.74.29-1.18.43-1.18.43Z"/><path class="cls-42" d="M121.47,103.72l-10.25-6.59Z"/><rect class="cls-26" x="116.02" y="94.34" width="0.66" height="12.18" transform="matrix(0.54, -0.84, 0.84, 0.54, -31.08, 143.89)"/><path class="cls-42" d="M124.53,101.61l-10.11-6.43Z"/><polygon class="cls-26" points="124.35 101.89 114.24 95.45 114.6 94.9 124.7 101.33 124.35 101.89"/><path class="cls-42" d="M127.21,98.9,117.43,93Z"/><rect class="cls-26" x="121.99" y="90.25" width="0.66" height="11.41" transform="translate(-22.98 151.27) rotate(-58.95)"/><path class="cls-42" d="M129.66,95.82l-9.23-5.34Z"/><rect class="cls-26" x="124.72" y="87.82" width="0.66" height="10.67" transform="translate(-18.23 154.69) rotate(-59.93)"/><path class="cls-42" d="M132.13,92.2l-9.6-4.58Z"/><rect class="cls-26" x="127" y="84.59" width="0.66" height="10.65" transform="translate(-8.66 166.09) rotate(-64.48)"/><path class="cls-41" d="M110.25,141.39s7.77-.11,13.24-3.33c6.22-3.67,6.92-6.92,6.92-6.92L142.61,142s-.76,2.61-6.22,7.25a23.51,23.51,0,0,1-13.8,6c-.8.07-1.26.08-1.26.08Z"/><path class="cls-42" d="M124.65,152.11l-8-9.18Z"/><rect class="cls-26" x="120.32" y="141.43" width="0.66" height="12.18" transform="translate(-67.23 115.56) rotate(-41.07)"/><path class="cls-42" d="M128.18,150.93l-7.92-9Z"/><polygon class="cls-26" points="127.93 151.15 120.01 142.16 120.51 141.72 128.43 150.72 127.93 151.15"/><path class="cls-42" d="M131.51,149.08l-7.76-8.38Z"/><rect class="cls-26" x="127.3" y="139.18" width="0.66" height="11.41" transform="translate(-64.46 125.28) rotate(-42.8)"/><path class="cls-42" d="M134.72,146.8l-7.38-7.7Z"/><rect class="cls-26" x="130.7" y="137.62" width="0.66" height="10.67" transform="translate(-62.48 130.37) rotate(-43.77)"/><path class="cls-42" d="M138.1,144l-7.95-7.08Z"/><rect class="cls-26" x="133.8" y="135.15" width="0.66" height="10.65" transform="translate(-59.98 147.26) rotate(-48.33)"/><path class="cls-41" d="M88.47,114.26s2.68,7.29,7.53,11.38c5.53,4.66,8.83,4.24,8.83,4.24L98.6,145s-2.72.14-8.9-3.46a23.54,23.54,0,0,1-10.27-11c-.33-.72-.49-1.15-.49-1.15Z"/><path class="cls-42" d="M83.13,131.4l6-10.6Z"/><rect class="cls-26" x="80.05" y="125.77" width="12.18" height="0.66" transform="translate(-66.05 138.82) rotate(-60.44)"/><path class="cls-42" d="M85.41,134.34l5.86-10.45Z"/><polygon class="cls-26" points="85.13 134.18 90.98 123.72 91.56 124.05 85.7 134.5 85.13 134.18"/><path class="cls-42" d="M88.27,136.86l5.33-10.09Z"/><rect class="cls-26" x="85.23" y="131.49" width="11.41" height="0.66" transform="translate(-68.09 150.69) rotate(-62.17)"/><path class="cls-42" d="M91.48,139.14l4.82-9.51Z"/><rect class="cls-26" x="88.56" y="134.05" width="10.67" height="0.66" transform="translate(-68.42 157.43) rotate(-63.14)"/><path class="cls-42" d="M95.23,141.4l4-9.84Z"/><rect class="cls-26" x="91.93" y="136.15" width="10.65" height="0.66" transform="translate(-65.92 174.67) rotate(-67.7)"/><g class="cls-43"><path class="cls-44" d="M103.91,345.18c-.3-.9-.61-1.79-1-2.66.48.28,1,.55,1.46.81C104.23,343.94,104.07,344.56,103.91,345.18Z"/></g><g class="cls-45"><path class="cls-46" d="M299.54,391.74a11.66,11.66,0,0,0-22.83-2.6,37.13,37.13,0,0,0-17.2-4.2c-.79,0-1.58,0-2.36.08v-.08a21.27,21.27,0,0,0-28.94-19.89,13.39,13.39,0,0,0,.09-1.43A11.66,11.66,0,1,0,212,374.33h-.25a18,18,0,0,0-9.1,2.47,23.31,23.31,0,0,0-17.55-19.47c0-.77.07-1.55.07-2.33a41,41,0,0,0-11-28,46.59,46.59,0,0,1-9-49.62l.18-.42c9.65-22.59,30.91-46.38,35.44-52.46a1.78,1.78,0,1,0-2.89-2.06c-4,5.29-21.33,25.63-45.3,41.64-8,5.32-19.55,7.25-30.61,7.65-13.34.48-26.24-4.12-36.92-12.13a38.54,38.54,0,0,0-32.91-6.42,23.4,23.4,0,0,0,.14-2.53,22.32,22.32,0,0,0-17.84-21.86,18.8,18.8,0,0,0,.18-2.39A18,18,0,0,0,.18,219.17V400H159.54a41.35,41.35,0,0,0,.87-6.23,23.9,23.9,0,0,0,2.45,2.91,23.2,23.2,0,0,0,4.21,3.32h24.74a22.85,22.85,0,0,0,2.76-2,19,19,0,0,0,.8,2H296.73A11.57,11.57,0,0,0,299.54,391.74Z"/></g><circle class="cls-26" cx="17.27" cy="197.36" r="6.21"/><circle class="cls-26" cx="62.06" cy="241.93" r="6.21"/><circle class="cls-26" cx="66.53" cy="274.32" r="9.73" transform="translate(-43.08 14.2) rotate(-9.22)"/><path class="cls-32" d="M235.13,400a11.94,11.94,0,0,0,.08-1.35,12.34,12.34,0,0,0-22.2-7.41,17.92,17.92,0,0,0-1.95-2.34,17.62,17.62,0,0,0-20.77-3.09,28.06,28.06,0,0,0,.54-5.45,27.7,27.7,0,0,0-27.7-27.7h-.46a8.45,8.45,0,1,0-5.23.58A27.75,27.75,0,0,0,138.87,367c-.4-.23-.82-.44-1.24-.64a15.73,15.73,0,0,0-4.5-15.81,31.46,31.46,0,0,0,17.58-40.86h0c-2.45-14.2,1.94-26.66,14.48-43.32,18.83-25,25.63-33.43,25.63-33.43s-19.54,20.91-35.64,33.43-30.87,13.82-30.87,13.82h0a17.67,17.67,0,0,0-13.49,9.23,17.94,17.94,0,0,0-31.6-.39,10.24,10.24,0,0,0-15.47,6.56l-1.1.08c0-.06,0-.12,0-.19a17.65,17.65,0,0,0-27.19-14.86,23.29,23.29,0,0,0-9.24-15.36,17.65,17.65,0,0,0-25.86-24L.18,400Z"/><path class="cls-47" d="M202.37,209.05l5.13,6.15,6.93,3.9a2.78,2.78,0,0,1,1,4L199.9,245.49s-6.68-6.85-9.53-9.22-11.16-8-11.16-8l19.15-19.5A2.72,2.72,0,0,1,202.37,209.05Z"/><path class="cls-48" d="M228.68,189.61c-.75,13.95-12.84,32.58-12.84,32.58h0a40.49,40.49,0,0,1-16.74-13.93h0S215.75,192.52,228.68,189.61Z"/><path class="cls-49" d="M215.84,222.19s3-4.28-1.47,2.42c-12.11,18.25-14.47,20.88-14.47,20.88a66.83,66.83,0,0,0-9.53-9.22l15.31-18.09c.41-.48.82-1,1.23-1.49A40,40,0,0,0,215.84,222.19Z"/><path class="cls-50" d="M206.91,216.69c8.57-10.58,16.69-25.07,17.34-25.67a29,29,0,0,1,4.43-1.41l0,.35c-.14,1.5-.9,7.65-4.64,16.73a116.48,116.48,0,0,1-8.17,15.5A40,40,0,0,1,206.91,216.69Z"/><path class="cls-49" d="M179.21,228.27c-.47.56,3.79,4.87,9.5,9.63s10.72,8.15,11.19,7.59-3.79-4.87-9.51-9.62S179.67,227.71,179.21,228.27Z"/><rect class="cls-51" x="234.03" y="149.98" width="22.24" height="40.31" transform="translate(323.51 458.07) rotate(-139.98)"/><path class="cls-52" d="M245.64,174.55s.89-1.11.42-2-8.52-8-8.52-8,9.88,6.19,12,8a17.94,17.94,0,0,1,3.69,5.41l-1.54,1.66Z"/><polygon class="cls-53" points="231.36 156.54 257.93 178.62 260.85 181.46 282.88 155.23 253.31 130.41 231.36 156.54"/><rect class="cls-54" x="216.61" y="166.86" width="22.24" height="48.07" transform="translate(279.38 483.52) rotate(-139.98)"/><path class="cls-55" d="M241.81,171.33a22.42,22.42,0,0,1-3.38,9.32c-3,4.77-26.16,28.65-26.16,28.65l8.52,7.15,30.91-36.81Z"/><path class="cls-56" d="M280,106.13l10,11.73,13.21,7.79c2.75,1.63,3.77,5,2.19,7.34L278,172.64S265,159.47,259.54,154.87s-21.4-15.67-21.4-15.67l34.35-33.94C274.44,103.33,277.94,103.74,280,106.13Z"/><path class="cls-51" d="M327.52,76.39c-2.07,24.91-21.46,55.06-21.46,55.06h0a84.86,84.86,0,0,1-32.22-27h0s27.26-24.85,50.53-30.72A2.55,2.55,0,0,1,327.52,76.39Z"/><path class="cls-49" d="M278,172.64,270.52,170s-6.75-6.9-13.66-12.62c-9.07-7.51-15.9-12.22-15.9-12.22l-2.82-5.91,1.67,1A147.1,147.1,0,0,1,278,172.64Z"/><path class="cls-49" d="M253.24,178a70.82,70.82,0,0,0-7.74-7.31,83.44,83.44,0,0,0-9.34-7L234.3,159a108.59,108.59,0,0,1,23.81,19.76Z"/><path class="cls-57" d="M303.7,130.23c-12.87,23-25.74,42.41-25.74,42.41s-5.92-6.73-9.39-10.22a81.44,81.44,0,0,0-7.43-6.89S274.89,144,291.86,122.8A84.66,84.66,0,0,0,303.7,130.23Z"/><path class="cls-52" d="M296.93,116.29c9.63-12.7,24.88-37,29-40.06a.57.57,0,0,1,.9.53c-.4,3.75-3.15,22.4-18.93,47-1.43,2.23-2.85,4.38-4.24,6.48a84.66,84.66,0,0,1-11.84-7.43C293.52,120.72,295.21,118.56,296.93,116.29Z"/><circle class="cls-51" cx="274.51" cy="135.58" r="15.31" transform="translate(-8.47 18.69) rotate(-3.84)"/><path class="cls-55" d="M248.86,169.69s3.39-5.25,3-11c-.28-4-3.87-7.92-6-9.9-.92-.86-1.57-1.35-1.57-1.35S254.79,155.3,260,160s10.5,10,10.5,10l-9.67,11.51S253,173.21,248.86,169.69Z"/><g class="cls-58"><path class="cls-59" d="M321.52,77.76S303.6,86,291.8,95s-14.9,13.18-14.9,13.18l-2.28-3.29s14-13.47,30.07-21.26,20.89-9.79,20.41-8.65S321.52,77.76,321.52,77.76Z"/></g><g class="cls-60"><path class="cls-61" d="M277.44,110.87s-9.34,8.89-15.94,15.74-14.88,16.7-14.88,16.7l-6-4s13.93-13.91,22.67-22.43c7.9-7.72,10.94-10.25,10.94-10.25Z"/></g><path class="cls-49" d="M234.34,165.72l17,14.31a.52.52,0,0,0,.72-.06.51.51,0,0,0-.06-.72l-17-14.31a.51.51,0,0,0-.72.07A.5.5,0,0,0,234.34,165.72Z"/><rect class="cls-62" x="213.21" y="171.35" width="26.85" height="41.67" transform="translate(276.63 485.11) rotate(-139.98)"/><path class="cls-55" d="M238.38,174.83a16.9,16.9,0,0,1-2,8.83c-2.43,4.3-23.1,24.48-23.1,24.48l10.29,8.64,26.79-31.92Z"/><path class="cls-49" d="M229.36,168.07l20.57,17.26a.62.62,0,0,0,.87-.07.63.63,0,0,0-.08-.87l-20.57-17.27a.61.61,0,0,0-.86.08A.62.62,0,0,0,229.36,168.07Z"/><rect class="cls-63" x="208.61" y="178.28" width="28.79" height="36.48" transform="translate(267.42 490.42) rotate(-139.98)"/><path class="cls-55" d="M233,181.06a14.3,14.3,0,0,1-1.16,8.25c-2,3.87-20.52,21.18-20.52,21.18l11,9.26,23.46-27.94Z"/><path class="cls-49" d="M201.36,202.25c-.46.56,3.8,4.87,9.51,9.62s10.72,8.16,11.19,7.6-3.8-4.87-9.51-9.63S201.83,201.69,201.36,202.25Z"/><path class="cls-49" d="M223.28,173.8l22.05,18.52a.66.66,0,0,0,.93-.09.65.65,0,0,0-.08-.93l-22.05-18.51a.66.66,0,0,0-.85,1Z"/><path class="cls-52" d="M272.37,127.77c2.9-3.78,7-3.26,10.24-.36s4.51,7.11,1.61,10.89a9.28,9.28,0,0,1-.71.82h0a6.63,6.63,0,0,1-2.08,1.58,6.94,6.94,0,0,1-.83.39c-1.36.59-4.86,1.71-6.23,2.39a17.35,17.35,0,0,0-4.55,3.8,2.22,2.22,0,0,1-.83.59l-.41.17a1.38,1.38,0,0,1-1.38-.2l-3.12-2.46a1.05,1.05,0,0,1,0-1.63c1.73-1.49,5.2-4.68,5.69-6.82.66-2.87.49-6.05,2-8.19h0A10.25,10.25,0,0,1,272.37,127.77Z"/><path class="cls-64" d="M270.54,126.18c2.9-3.78,7-3.27,10.24-.36s4.51,7.1,1.61,10.88a8.2,8.2,0,0,1-.71.82h0a6.7,6.7,0,0,1-2.09,1.59,6.81,6.81,0,0,1-.82.39c-1.36.59-2.87,1-4.24,1.72-2.5,1.24-2.62,1.87-2.62,1.87l-2.61-2.32-2.62-2.33s.57-.23,1.23-3.1.49-6.06,2-8.2h0A10.11,10.11,0,0,1,270.54,126.18Z"/><path class="cls-65" d="M267.1,137.86a8.47,8.47,0,0,0,2.18,2.91,7.81,7.81,0,0,0,3.07,1.76s.26,1.46-.17,1.57-.51,0-.51,0-2.09,3.05-3.41,3.2-2.73-1.26-2.94-1.46a5,5,0,0,1-1.77-2.73c-.12-1.41,2.28-4.2,2.28-4.2s-.15-.05-.13-.53S267.1,137.86,267.1,137.86Z"/><path d="M270.67,141.93c.34-.41,2.21-2.63,4-4.53a3.68,3.68,0,0,1-.38-1.16,1.88,1.88,0,0,1-.69.09,1,1,0,0,1-.78-.41l.48-.34a.42.42,0,0,0,.35.17,1.49,1.49,0,0,0,.59-.11,2.1,2.1,0,0,1,.4-1.19c.4-.58,1.15-1.55,1.65-1.53a.44.44,0,0,1,.36.21c.3.51-.37,1.59-.95,2.2a3.59,3.59,0,0,1-.85.67,3.3,3.3,0,0,0,.25.95,11.53,11.53,0,0,1,2.87-2.37c.85-.29,1.14.09,1.23.27.37.78-.64,2.25-2.26,3.29a1.4,1.4,0,0,1-1.44.13,1.58,1.58,0,0,1-.49-.38c-1.5,1.58-3.11,3.43-3.93,4.41Zm7.53-6.79a11.74,11.74,0,0,0-2.74,2.33,1.23,1.23,0,0,0,.34.28.82.82,0,0,0,.86-.11c1.65-1,2.19-2.25,2-2.53a.09.09,0,0,0-.06,0A.84.84,0,0,0,278.2,135.14Zm-3-.36a1.77,1.77,0,0,0-.24.5,2.71,2.71,0,0,0,.4-.36,3.86,3.86,0,0,0,.84-1.3A5.69,5.69,0,0,0,275.16,134.78Z"/><path d="M267.71,139.34c.75-1.07,2.15-3.13,3.31-5a1.57,1.57,0,0,1-.38-.34,1.6,1.6,0,0,1-.23-1.61c.63-1.87,1.76-3.21,2.56-3,.26.05.64.29.53,1.22a12.47,12.47,0,0,1-1.65,3.51,2.71,2.71,0,0,0,.91.1,4,4,0,0,1,.45-1c.44-.73,1.35-1.63,1.87-1.42a.44.44,0,0,1,.26.3c.12.53-.71,1.58-1.08,2a1.92,1.92,0,0,1-1,.66,1.61,1.61,0,0,0,0,.7.52.52,0,0,0,.21.33l-.27.52a1.09,1.09,0,0,1-.51-.69,2.32,2.32,0,0,1-.05-.8,3.35,3.35,0,0,1-1.11-.17c-1.46,2.41-3.22,4.93-3.35,5.1Zm5.13-9.45c-.27-.06-1.24.77-1.87,2.65a1.06,1.06,0,0,0,.12,1.05,1.15,1.15,0,0,0,.23.21,12.91,12.91,0,0,0,1.6-3.32c.05-.42,0-.58-.08-.59Zm.86,3.55a3.71,3.71,0,0,0-.26.53,1.63,1.63,0,0,0,.38-.33,6.35,6.35,0,0,0,.89-1.31A3.63,3.63,0,0,0,273.7,133.44Z"/><path d="M271.49,144.24a.29.29,0,0,0,.17-.55,12.72,12.72,0,0,1-3.05-2,11.29,11.29,0,0,1-2.53-3,.3.3,0,0,0-.4-.13.3.3,0,0,0-.12.4,11.56,11.56,0,0,0,2.68,3.15,12.28,12.28,0,0,0,3.21,2.08Z"/><path d="M269.8,145a.29.29,0,0,0,.19-.55,9.22,9.22,0,0,1-2.61-1.82,8.6,8.6,0,0,1-1.51-2,.29.29,0,0,0-.39-.14.29.29,0,0,0-.14.38A8.83,8.83,0,0,0,267,143a9.55,9.55,0,0,0,2.79,2Z"/><path d="M269.32,145.63a.29.29,0,0,0,.19-.55,9.22,9.22,0,0,1-2.61-1.82,9.42,9.42,0,0,1-1.51-2,.29.29,0,0,0-.53.24,9.18,9.18,0,0,0,1.62,2.17,9.39,9.39,0,0,0,2.8,2Z"/><path d="M268.84,146.25a.28.28,0,0,0,.34-.17.28.28,0,0,0-.15-.38,9.39,9.39,0,0,1-2.6-1.82,9,9,0,0,1-1.52-2,.28.28,0,0,0-.38-.14.3.3,0,0,0-.15.39,9.57,9.57,0,0,0,4.42,4.12Z"/><g class="cls-66"><path class="cls-67" d="M269.3,130.82s1.7-7.32,7.48-5.89a7.7,7.7,0,0,1,5.54,5.1,14.65,14.65,0,0,0-5.54-2.19C271.51,127.15,270.06,130.08,269.3,130.82Z"/></g><path class="cls-49" d="M286.57,119.05l1.44,1.19c12.73,10.4,17.73,11.66,17.93,11.71a.51.51,0,0,0,.24-1h0c-.05,0-5.05-1.31-17.52-11.5s-14.32-15.17-14.34-15.22a.51.51,0,0,0-.65-.32.52.52,0,0,0-.31.65C273.43,104.76,275.13,109.43,286.57,119.05Z"/><path class="cls-52" d="M213.85,222.82l5.17,5.56,6.73,3.13a2.76,2.76,0,0,1,1.18,3.82l-13.39,23.95s-6.66-6.09-9.46-8.14-10.94-6.75-10.94-6.75L210.07,223A2.46,2.46,0,0,1,213.85,222.82Z"/><path class="cls-52" d="M237.51,200.7c.07,13.93-10.27,33.74-10.27,33.74h0a35.74,35.74,0,0,1-16.5-12.05h0S225.52,205,237.51,200.7Z"/><path class="cls-52" d="M188.5,198.35l4.17,6,6.23,4a2.45,2.45,0,0,1,.46,3.76l-18.22,20.27s-5.58-6.77-8-9.14-9.8-8.08-9.8-8.08l21.32-17.33A2.67,2.67,0,0,1,188.5,198.35Z"/><path class="cls-52" d="M216.8,181.45c-2.62,13.05-16.94,29.93-16.94,29.93h0a34.33,34.33,0,0,1-14.43-13.93h0S203.8,183.52,216.8,181.45Z"/><path class="cls-55" d="M227.24,234.44a127.14,127.14,0,0,0,6.83-16.27A114.21,114.21,0,0,1,226,237c-10.38,19.41-12.46,22.28-12.46,22.28a59.45,59.45,0,0,0-9.46-8.14l13.39-19.6c.36-.53.71-1.07,1.07-1.62A35.29,35.29,0,0,0,227.24,234.44Z"/><path class="cls-68" d="M269,224v-.35A3.09,3.09,0,0,1,269,224Z"/><path class="cls-51" d="M218.54,229.92c7.48-11.42,14.31-26.68,14.89-27.34a27.77,27.77,0,0,1,4.08-1.88v.35c0,1.5-.43,7.69-3.44,17.12a127.14,127.14,0,0,1-6.83,16.27A35.29,35.29,0,0,1,218.54,229.92Z"/><path class="cls-68" d="M185.87,198.22,183.45,200c-17.6,12.65-20.14,15.26-20.14,15.26a56.63,56.63,0,0,1,9.13,7.63l17-16.06c.46-.43,1.42-1.12,1.89-1.55A29.51,29.51,0,0,1,185.87,198.22Z"/><path class="cls-51" d="M191.34,205.24c7.75-7.05,16.3-13.31,20-16.05a10.15,10.15,0,0,0,2.63-2.91l0,0a1.47,1.47,0,0,0-1.55-2.19c-2.09.44-5.78,1.47-12,4.79a134.45,134.45,0,0,0-14.56,9.38A29.51,29.51,0,0,0,191.34,205.24Z"/><path class="cls-48" d="M163.27,215.34c-.53.51,3,4.75,7.91,9.48s9.3,8.15,9.82,7.65-3-4.75-7.91-9.48S163.8,214.84,163.27,215.34Z"/><path class="cls-48" d="M193.07,244.48c-.4.6,3.83,4.43,9.46,8.54s10.53,7,10.93,6.35-3.82-4.43-9.45-8.54S193.48,243.87,193.07,244.48Z"/><path class="cls-68" d="M257.21,220.14c0-.12,0-.24,0-.36Z"/><path class="cls-26" d="M201.63,238.18a.5.5,0,0,0,.68-.14,189.71,189.71,0,0,1,12.83-16.1,56.14,56.14,0,0,1,11.94-10,.51.51,0,0,0,.19-.69.52.52,0,0,0-.7-.2,57.71,57.71,0,0,0-12.19,10.16,189.8,189.8,0,0,0-12.9,16.21.51.51,0,0,0,.12.71Z"/><path class="cls-26" d="M282.53,99.76a.52.52,0,0,0,.68,0c15.73-14.89,39-22.78,39.24-22.86a.51.51,0,0,0,.32-.65.52.52,0,0,0-.65-.32c-.23.08-23.72,8-39.61,23.09a.5.5,0,0,0,0,.72Z"/><path class="cls-26" d="M234.68,156.93h0a.52.52,0,0,0,.72-.08c2.42-3,6.46-8,7-8.38a.49.49,0,0,0,.21-.67.52.52,0,0,0-.7-.22c-.6.3-4.83,5.54-7.3,8.63A.51.51,0,0,0,234.68,156.93Z"/><polygon class="cls-68" points="234.49 159.25 244.88 148.36 243.31 147.01 231.36 156.54 234.49 159.25"/><path class="cls-52" d="M179.91,122.22s-1.08,11.31.15,19.29,2.8,22.28.75,31.07-6.58,27.47-7.16,28,7.24-1.31,7.24-1.31,11.81-22,13.15-33.21,1-30.39,2.58-32.6,6.52-4.1,7.77-8.85c1.63-6.13-2.88-12.75-2.88-12.75S181.26,118.76,179.91,122.22Z"/><path class="cls-50" d="M195.83,118.69a26.08,26.08,0,0,1-5.33,4.82c-2.78,1.73-5.26,6.47-5.76,9.28s2.63,25.36,2.77,27,4.33,3.41,3.39,3.72-6.18,1.91-5,1.91,5.1.75,3.86,1.46-6.2,2.17-5.29,2.57,4.77,1.4,2.85,1.91-5.44,13.2-6.54,17.94a25.63,25.63,0,0,0,.07,9.94l-7.37,1.56s7.78-29.39,8-32.78-2-26.9-2.57-31.87a41.32,41.32,0,0,1-.29-8.78s9.38-8.57,12.5-9.19S195.83,118.69,195.83,118.69Z"/><rect class="cls-69" x="132.6" y="111.07" width="0.94" height="2.54" transform="translate(61.12 -46.25) rotate(25.43)"/><rect class="cls-69" x="142.7" y="117.05" width="0.94" height="1.57" transform="translate(64.44 -50.05) rotate(25.42)"/><rect class="cls-70" x="118.08" y="114.99" width="28.89" height="18.46" transform="translate(66.15 -44.86) rotate(25.42)"/><rect class="cls-70" x="119.62" y="114.34" width="30.16" height="10.81" transform="translate(64.44 -46.23) rotate(25.42)"/><path class="cls-32" d="M117.12,123s3.85,2.45,12.81,4.51c7.63,1.76,10.4.92,10.4.92l-21-10Z"/><rect class="cls-69" x="131.02" y="122.64" width="3.47" height="4.35" transform="translate(66.43 -44.9) rotate(25.42)"/><path class="cls-26" d="M132.29,122.18a7.17,7.17,0,0,0-.22,3.1,2.88,2.88,0,0,0,1.39,2.1l1.8-3.79Z"/><polygon class="cls-52" points="146.25 114.52 133.58 108.5 131.99 111.85 134.07 112.84 135.08 110.83 143.51 114.83 142.5 116.85 144.66 117.87 146.25 114.52"/><rect class="cls-52" x="137.44" y="111.37" width="0.66" height="9.33" transform="translate(-26.17 190.65) rotate(-64.58)"/><polygon class="cls-71" points="201.87 114.91 207.35 95.25 207.65 112.74 201.87 114.91"/><path class="cls-32" d="M202.34,114.33a89.68,89.68,0,0,0,6.31-23.45c1.51-12.75-6.39-14.46-7-14.74-4-1.91-19.59-.83-20.51,1.13-2.24,4.74,6,15.16,6.26,26.34.19,7.67-9.47,23.49-11.09,25.06-2.65,2.58,5.5,2.37,13.49-8.77.87-1.21,1.9.06,5-1.22a13.59,13.59,0,0,0,2.7-1.78A20.07,20.07,0,0,1,202.34,114.33Z"/><polygon class="cls-70" points="199.33 79.69 205.62 91.03 199.13 76.15 199.33 79.69"/><path class="cls-70" d="M187.37,118.35s7.77-11.73,10.21-18.52a29.52,29.52,0,0,0,1-15.21,15.32,15.32,0,0,1,.08-4.66l-3.43-1.51-3.71-.07S187.87,115.62,187.37,118.35Z"/><path class="cls-51" d="M190,74.84s5.9,8,7.25,13.39-8.76,30.8-12.37,34-9.35,4.57-9.35,4.57,5.86-19.82,6.59-29.95-2.92-17.31-.35-20.24S190,74.84,190,74.84Z"/><path class="cls-51" d="M198.9,75s3,8.38,5.76,12.88,2.93,24.89,2.93,24.89l1-.58s2.1-23.7,1.58-28.19-3.49-8-5-8.1S198.9,75,198.9,75Z"/><path class="cls-52" d="M175.48,126.75s8.17-1.2,11.13-7,6.17-22.59,5.71-27.19-1-5-1-5l2.9-.58-3.33-1.59s.16-1.49-1.74-4.28a46.67,46.67,0,0,0-5.08-5.86s-3.95-.06-3.23,5.48a126.41,126.41,0,0,1,.55,18.82C181.1,103,176.91,123.83,175.48,126.75Z"/><path class="cls-72" d="M203,75.6s4.33,7.69,4.85,8.71-2.13,1-2.13,1l2.5.71a39,39,0,0,1,1.16,5.81c.24,2.53-1.46,11.4-1.46,11.4l-.35,9.52,1.76-.76s2.39-23.1,1.28-28.49-3.92-7.08-4.68-7.35A22.25,22.25,0,0,0,203,75.6Z"/><path class="cls-52" d="M210.33,85.5s20,3.47,21.88-.24-.9-19.41-1.61-20.61-1.58-1-1.58-1l-3,1.12s.42,13,.09,13.75S211.05,75.78,206,76.14C206,76.14,209.71,85.21,210.33,85.5Z"/><path class="cls-52" d="M183,75.49S157.65,85,151.85,93s-9.17,13-9.17,13l3.76,3.44S155.65,98.16,162,94s20.53-7.08,22.69-10S183,75.49,183,75.49Z"/><path class="cls-71" d="M142.68,106s4.91-.9,7.78-3.91c4.33-4.56,6.55-5.85,5.87-6.63S155,92.72,156,93.16s3.59,2.42,3.54,1.51-2.78-4.18-1.36-3.54,3.61,2.54,3.45,1.73-1.65-4.14-.08-2.73,6.07-1.21,9.79-2.61,10.86-7.76,10.86-7.76.93,5.63-.78,6.33c-5.11,2.1-15.91,5.71-19.39,7.9s-15.55,15.49-15.55,15.49Z"/><path class="cls-71" d="M210.92,86s-.71-2-1.74-4.46A21.62,21.62,0,0,0,207,77.73s7.32,4,9.9,4.8,8.38,2.44,9.83,2.41.55-1.53-.22-3,1.49,1,2.35,1.33-2.55-4.1-1.64-4,3.77,3,3.67,2.22-2.67-3.51-2.22-3.3a20.59,20.59,0,0,0,2.49.61s-1.66-9.89-2.31-11.64a4.81,4.81,0,0,0-2.83-2.43s2.64-1.74,3.77-1.29.78,1.18.78,1.18,2.23,8.73,2.54,13.67-.46,6.14-1,7.33C231.05,87.87,215.49,87.57,210.92,86Z"/><path class="cls-73" d="M145.75,108.84a18.79,18.79,0,0,1-1.55,4.8c-1.09,2.11-1.57,1.43-1.29-.09a8.6,8.6,0,0,0,.16-2.43,5.82,5.82,0,0,0-1.53,1.9c-.17.44.84,1,.6,1.19-1.23.76-2.53-.81-2.53-.81s-.5.78-1,.67c-1.13-.25-.31-1.44-.31-1.44s-1,.84-1.2-.06-.14-.86-.14-.86-2.54,1.9-2.43.7,8.18-6.37,8.18-6.37Z"/><path class="cls-71" d="M198.9,75l-.44.41s4.79,9.6,5.92,12.54a37.68,37.68,0,0,1,2.26,8.49c.13.65.36,3.68.36,3.68l.58,12.5s1.54-13.4-1-21C205.53,88.51,198.9,75,198.9,75Z"/><path class="cls-71" d="M144,106.59l-.29-.2c.41-.6,9.8-14.56,12-15.69l.1,0c.85-.31,6-3.3,11.48-6.46,8.22-4.75,13.65-7.87,14.29-7.92a.33.33,0,0,1,.25.11c.53.58.88,4.59.63,6.09l-.34-.06c.27-1.61-.17-5.53-.56-5.8-.56.06-8.06,4.4-14.09,7.88-5.48,3.17-10.66,6.17-11.54,6.49l-.08,0C154.07,91.91,146.7,102.5,144,106.59Z"/><polygon class="cls-71" points="179.06 109.65 184.29 108.6 184.85 106.88 179.34 108.29 179.06 109.65"/><path class="cls-71" d="M180,108.29a.14.14,0,0,1-.14,0,.18.18,0,0,1-.1-.23c0-.08,3.43-8.5,4.31-13.17a28.71,28.71,0,0,0,.74-6.45.19.19,0,0,1,.16-.19.17.17,0,0,1,.19.16,28.31,28.31,0,0,1-.75,6.55c-.88,4.7-4.29,13.15-4.33,13.23A.14.14,0,0,1,180,108.29Z"/><path class="cls-71" d="M181.7,99.31l-.1,0a.18.18,0,0,1-.15-.19l1-10.25a.18.18,0,1,1,.35,0l-1,10.25A.17.17,0,0,1,181.7,99.31Z"/><path class="cls-71" d="M196.31,88.25a.22.22,0,0,1-.16,0l-5.43-2.74v-.09A19.1,19.1,0,0,0,189,81.19a20,20,0,0,0-5-5.8.18.18,0,0,1,0-.25.17.17,0,0,1,.24,0A20.36,20.36,0,0,1,189.3,81,21,21,0,0,1,191,85.27l5.28,2.67a.17.17,0,0,1,.08.23A.2.2,0,0,1,196.31,88.25Z"/><path class="cls-71" d="M190.2,108.8a.17.17,0,0,1-.25-.2A61.43,61.43,0,0,0,192,97a42.85,42.85,0,0,0-.52-9.51.18.18,0,0,1,.13-.21.19.19,0,0,1,.21.14,42.61,42.61,0,0,1,.53,9.6,62.7,62.7,0,0,1-2,11.64A.22.22,0,0,1,190.2,108.8Z"/><path class="cls-52" d="M207.81,85a6.6,6.6,0,0,1-2.05.43.17.17,0,0,1-.19-.16.16.16,0,0,1,.16-.18,4.62,4.62,0,0,0,2.06-.49c-.24-.52-4.23-7.72-4.27-7.79a.18.18,0,0,1,.07-.24h0a.19.19,0,0,1,.24.07c.16.3,4,7.28,4.27,7.82a.33.33,0,0,1,0,.32A.62.62,0,0,1,207.81,85Z"/><path class="cls-71" d="M208.81,100.36a.12.12,0,0,1-.1,0,.17.17,0,0,1-.15-.2,74.16,74.16,0,0,0,.69-7.48,25.06,25.06,0,0,0-1.09-6.33.16.16,0,0,1,.11-.21.18.18,0,0,1,.22.11,25.27,25.27,0,0,1,1.11,6.44,73.64,73.64,0,0,1-.7,7.52A.14.14,0,0,1,208.81,100.36Z"/><path class="cls-32" d="M189.34,73.94a16.47,16.47,0,0,1,4.38,1.63,17.83,17.83,0,0,1,4.1,2.8s-.18.39.45,1,.41.6.41.6-.55.39-.86.18-1.08-.93-1.08-.93L195.82,81a38.18,38.18,0,0,1-4.49-3.18c-1.68-1.4-4-3.21-4-3.21Z"/><path class="cls-32" d="M198,74.54h2.16a3.84,3.84,0,0,1,1.08,2.33,6.33,6.33,0,0,1-.77,3c0-.07-.9-1.29-1-1.13a2.23,2.23,0,0,0-.13.79,23.6,23.6,0,0,1-1.42-3.88A8.69,8.69,0,0,1,198,74.54Z"/><path class="cls-51" d="M198,80.19l2.27,2.43L200,79.25A14.56,14.56,0,0,1,198,80.19Z"/><path class="cls-51" d="M183.67,112.65l2.81-4.49s6.58-6.72,10.05-13.5a27.24,27.24,0,0,0,2.92-13.32l.81,1s1,10.61-3.28,18.87S189.05,111.57,183.67,112.65Z"/><path class="cls-51" d="M199.18,70.9l-2.31-1.67s-.2,3.06-.17,4.66a4.49,4.49,0,0,0,1.51,2.86,3.62,3.62,0,0,1-.2-1.84A30.07,30.07,0,0,1,199.18,70.9Z"/><rect class="cls-52" x="207.09" y="58.6" width="30.02" height="2.51" transform="translate(-7.14 40.9) rotate(-10.36)"/><polygon class="cls-52" points="247.86 58.01 218.21 62.75 217.44 58.53 246.83 52.38 247.86 58.01"/><polygon class="cls-52" points="259.51 57.62 233.94 61.13 232.71 54.37 257.86 48.57 259.51 57.62"/><polygon class="cls-51" points="257 48.63 233.94 61.13 258.66 57.73 257 48.63"/><polygon class="cls-51" points="232.77 55.32 233.79 60.26 218.21 62.75 232.77 55.32"/><polygon class="cls-51" points="217.63 59.57 218.05 61.88 208.53 63.55 217.63 59.57"/><rect class="cls-52" x="257.88" y="46.67" width="2.68" height="13.26" transform="matrix(0.98, -0.18, 0.18, 0.98, -5.36, 47.46)"/><rect class="cls-52" x="206.34" y="60.63" width="1.99" height="3.85" transform="translate(-7.87 38.28) rotate(-10.35)"/><path class="cls-73" d="M225.42,57s.93,1.94,1.32,2.07.35-.72.35-.72.37,1,.75.84.28-.94.28-.94.33.79.62.55.26-1,.26-1,.09.71.51.74.28-1,0-1.89-.58-1.2-.83-1.15-.3.18-.3.18-.46-.4-.74-.2-.27.39-.27.39-.72-.5-1-.26a1,1,0,0,0-.31.53s-.63-.42-.81-.16a6,6,0,0,0-.4,1Z"/><path class="cls-73" d="M226.46,64.49s-2.84-2.73-2.93-3.45A7.7,7.7,0,0,1,224.79,58c.25-.28.29,2.41.27,3s1.07.33,2.25.25c1.58-.11,2.34-.21,2.53,0s-.67,2.39-.67,2.39Z"/><path class="cls-74" d="M229.17,63.6a4.49,4.49,0,0,1-2.14-.39,3.85,3.85,0,0,1-1.74-1.89,9.4,9.4,0,0,1,2.88-.54,17.1,17.1,0,0,1,1.76.1A4.64,4.64,0,0,1,229.17,63.6Z"/><path class="cls-75" d="M208.53,63.55l9.1-4Z"/><g class="cls-76"><path class="cls-77" d="M233.88,54.1s5-.24,9.5-.38,9.84-4.08,9.84-4.08Z"/></g><g class="cls-78"><path class="cls-79" d="M256.71,47s1.65,4.8,2.55,6.92a16.12,16.12,0,0,0,2.09,3.55l-2-11Z"/></g><path class="cls-52" d="M202.34,114.33c3-2.21,32.06-8.38,34.65-4s-2.07,37.1-2.07,37.1l-6.74,2s.25-6.62,0-14.11c-.32-12.11-.16-13.74-.16-13.74-1.91-1-33.61,10.56-33.61,10.56S198.92,116.84,202.34,114.33Z"/><path class="cls-50" d="M196.62,133.45c-.92.22,2.56-3.11,2.25-7.21a52.66,52.66,0,0,1,.06-6.52c-.15.32,2.15,5.47,2.79,5s5.86-4.84,20.27-8.61c6.08-1.59,7-.44,7.59-.52s5.31-3.72,4.54-2.57-4.15,5.45-3.42,5.13,3.89-1.72,2.56-.15-4.14,4.78-3.22,4.42,2.91-.91,2.1.23-.75,13.09,0,16.25a82,82,0,0,0,2.81,8.55l-6.74,2s.13-27.11-1.21-27.57c-2.13-.74-20.72,5.84-23.16,7.12C201.76,130,200.41,132.52,196.62,133.45Z"/><path class="cls-26" d="M179.77,204.18s-1-.15-1-1.61a15,15,0,0,1,.22-2.83l-4.94,1s.52,6.94,2.41,7.29C177.72,208.24,178.51,205.48,179.77,204.18Z"/><path class="cls-80" d="M174.75,207.49s1.36,1.85,2.8,1,11.77-7.56,11.33-7.82-.66-1.08-.95-.94-5.15,2.8-6.8,2.15a2.56,2.56,0,0,1-1.77-2l-2.26,1.52s1.41,1.71,1.33,2.67S174.75,207.49,174.75,207.49Z"/><path class="cls-26" d="M235.57,152s-1-.09-1.09-1.55a15.17,15.17,0,0,1,0-2.83l-4.87,1.3s1,6.9,2.88,7.12C233.78,156.2,234.39,153.4,235.57,152Z"/><path class="cls-80" d="M230.77,155.65s1.47,1.76,2.85.82,11.26-8.31,10.81-8.54-.73-1-1-.87-5,3.12-6.65,2.58a2.58,2.58,0,0,1-1.89-1.9l-2.16,1.67s1.51,1.61,1.5,2.58S230.77,155.65,230.77,155.65Z"/><path class="cls-71" d="M176.54,130.27h-.11a.22.22,0,1,1,0-.43s1.71.12,5.38-2.18c2.55-1.58,5.13-4.72,6.68-6.59.95-1.15,1.34-1.62,1.58-1.7a5.36,5.36,0,0,1,1-.13c1.26-.12,3.36-.32,4.58-1.31a21.31,21.31,0,0,1,3.67-2.27c.35-.17.66-.33.92-.48,1-.58,2-1,2-1a.22.22,0,1,1,.19.39s-1,.46-2,1c-.26.15-.58.31-.94.49a20.49,20.49,0,0,0-3.59,2.22c-1.33,1.08-3.51,1.28-4.82,1.4a7.22,7.22,0,0,0-.86.11,13.72,13.72,0,0,0-1.38,1.57c-1.57,1.89-4.18,5.06-6.79,6.69C178.73,130.12,177,130.27,176.54,130.27Z"/><path class="cls-71" d="M187.54,121h-.07a.22.22,0,0,1-.14-.28,16.92,16.92,0,0,1,2.51-4.84,21.19,21.19,0,0,1,3.7-3.89.22.22,0,0,1,.31,0,.21.21,0,0,1,0,.3,22.08,22.08,0,0,0-3.61,3.81,16.75,16.75,0,0,0-2.44,4.7A.24.24,0,0,1,187.54,121Z"/><path class="cls-71" d="M193.06,119.27a.22.22,0,0,1-.22-.21,5.28,5.28,0,0,1,.39-2,36.66,36.66,0,0,1,2.06-3.73.22.22,0,0,1,.3-.07.22.22,0,0,1,.07.3,36.77,36.77,0,0,0-2,3.66,4.74,4.74,0,0,0-.36,1.86.22.22,0,0,1-.21.23Z"/><path class="cls-71" d="M180.49,134l-.16-2.25.15-.06s3.88-1.51,5.79-2.53a8.81,8.81,0,0,0,2.2-1.4l.3-.36.43,2.3-.12.08s-2.31,1.55-4,2.46a25,25,0,0,1-4.34,1.68Zm.3-2,.1,1.38a23.94,23.94,0,0,0,4-1.56c1.44-.79,3.34-2,3.83-2.36l-.22-1.18a14.1,14.1,0,0,1-2,1.23C184.76,130.49,181.53,131.78,180.79,132.07Z"/><path class="cls-71" d="M187.28,171a5.88,5.88,0,0,1-2.58-.77,15,15,0,0,1-3.33-2.06l-.06-.06v-.09s-.05-2.53-.18-4.94-1.93-22.54-2.39-26.92a30.69,30.69,0,0,1-.11-6.7.23.23,0,0,1,.25-.19.22.22,0,0,1,.18.25,30.76,30.76,0,0,0,.12,6.59c.45,4.39,2.25,24.55,2.39,26.94.12,2.16.16,4.38.17,4.87a17.48,17.48,0,0,0,3.16,1.92c2.35,1.21,3.18.53,3.19.52a.22.22,0,0,1,.3.33A1.69,1.69,0,0,1,187.28,171Z"/><path class="cls-71" d="M188,167.11h-.07c-1.55-.52-5.18-1.8-5.37-2.44a.31.31,0,0,1,0-.28c.4-.52,5.45-1.18,7.6-1.44a.21.21,0,0,1,.24.19.21.21,0,0,1-.19.24A49.67,49.67,0,0,0,183,164.6a27,27,0,0,0,5,2.09.22.22,0,0,1-.07.42Z"/><rect class="cls-71" x="184.08" y="161.65" width="5.18" height="0.44" transform="translate(-42.75 70.14) rotate(-19.14)"/><path class="cls-71" d="M173.78,200.7h-.06a.21.21,0,0,1-.15-.27l1-3.51,6.77-.46a.22.22,0,0,1,.24.2.24.24,0,0,1-.21.24l-6.46.43-.88,3.22A.22.22,0,0,1,173.78,200.7Z"/><path class="cls-71" d="M196.62,133.67l-.09,0a.22.22,0,0,1-.11-.29s.91-2,1.89-4.31a5.77,5.77,0,0,0,.36-3.73,5.75,5.75,0,0,1-.1-.78c0-1,.13-4.67.14-4.83a.2.2,0,0,1,.23-.2.21.21,0,0,1,.21.22s-.18,3.86-.14,4.8a4.4,4.4,0,0,0,.1.72,6.26,6.26,0,0,1-.4,4c-1,2.28-1.89,4.31-1.89,4.31A.23.23,0,0,1,196.62,133.67Z"/><path class="cls-71" d="M196.62,133.67a.22.22,0,0,1-.22-.19.22.22,0,0,1,.18-.25,9.32,9.32,0,0,0,5.15-2.95c1.37-1.68,3.11-2.23,6.57-3.32,1.83-.57,4.1-1.28,7.07-2.4a50.27,50.27,0,0,1,9.94-2.87,9.53,9.53,0,0,0,1.74-.41c1.15-.44,3.63-4.79,4.5-6.43a.21.21,0,0,1,.29-.09.22.22,0,0,1,.09.3c-.32.61-3.21,6-4.73,6.63a9.86,9.86,0,0,1-1.81.43,49.86,49.86,0,0,0-9.87,2.85c-3,1.12-5.26,1.84-7.09,2.41-3.38,1.06-5.07,1.6-6.36,3.18a9.6,9.6,0,0,1-5.42,3.1Z"/><path class="cls-71" d="M229,123.1c-.45,0-.52-.14-.55-.21-.2-.43,1.3-2.32,4.45-5.63a.22.22,0,0,1,.32.3,37.31,37.31,0,0,0-4.34,5.12,20.69,20.69,0,0,0,4.64-1.19.22.22,0,0,1,.28.13.22.22,0,0,1-.13.28A17.7,17.7,0,0,1,229,123.1Z"/><path class="cls-71" d="M227.94,149.71l.25-4.22,2.49-.72,4.94-.88-.5,3.74-.15,0s-1.11.28-2,.6-4.54,1.33-4.69,1.37Zm.67-3.88-.2,3.3c.91-.26,3.6-1,4.37-1.28s1.61-.49,1.94-.58l.39-2.84-4.32.76Z"/><path class="cls-71" d="M207.84,112.13l-.44,0c0-.08.64-8.18,1.09-11.94.09-.76.09-.81.32-.78s.14,0,.16.27h0a1.05,1.05,0,0,0,0,.2c0,.66-.16,2.23-.53,6C208.15,109,207.84,112.13,207.84,112.13Z"/><path class="cls-71" d="M200.11,130.52l-.09,0a.22.22,0,0,1-.11-.29s1.43-3,2.18-5.16a11.34,11.34,0,0,0,.57-4.13.22.22,0,0,1,.2-.24.21.21,0,0,1,.23.2,11.21,11.21,0,0,1-.59,4.31c-.75,2.17-2.18,5.17-2.19,5.21A.24.24,0,0,1,200.11,130.52Z"/></svg>