<svg id="Layer_1" data-name="Layer 1" xmlns="http://www.w3.org/2000/svg" viewBox="0 0 1366 768"><defs><style>.cls-1{fill:#2ddcb8;}.cls-2{fill:#39f2ca;}.cls-3{fill:#1f1a3c;}</style></defs><title>1</title><path class="cls-1" d="M1225,32a96.7,96.7,0,0,1,5-30.77L785,2c-7,22.86-21.67,56.88-54,80-20.38,14.58-39.86,19.15-52,22-174.79,41.09-191.57,47.24-208,55-30.83,14.56-77.46,37.36-105,89-5.79,10.86-28,52.84-15,103,7,27,6.84,42.92,80,126,45.77,52,72.57,76.8,113,132,23.8,32.5,37.49,55.26,39,86,1.62,33-11.54,59.71-21,75h688.5A175.06,175.06,0,0,1,1366,507.3V118.47A96.65,96.65,0,0,1,1322,129,97,97,0,0,1,1225,32Z"/><path class="cls-2" d="M1230,1.23A97.05,97.05,0,0,0,1322,129a96.65,96.65,0,0,0,44-10.53V1Z"/><path class="cls-3" d="M1225,679a174.12,174.12,0,0,0,25.5,91H1366V507.3A175.06,175.06,0,0,0,1225,679Z"/></svg>