<svg width="279" height="278" viewBox="0 0 279 278" fill="none" xmlns="http://www.w3.org/2000/svg">
<path d="M140.045 0C63.4235 0 0 62.1102 0 138.457C0 214.804 63.4235 278 140.045 278C216.666 278 279 214.804 279 138.457C279 62.1102 216.666 0 140.045 0ZM208.825 183.952C215.201 190.305 215.201 200.638 208.825 206.996C202.498 213.294 192.129 213.398 185.698 206.996L140.045 161.49L93.2961 207.001C86.9205 213.354 76.5506 213.354 70.1696 207.001C63.794 200.649 63.794 190.316 70.1696 183.958L115.834 138.457L70.1696 92.9562C63.794 86.5981 63.794 76.2654 70.1696 69.9127C76.5506 63.5599 86.9205 63.5599 93.2961 69.9127L140.045 115.424L185.698 69.9127C192.063 63.5708 202.433 63.5491 208.825 69.9127C215.201 76.2654 215.201 86.5981 208.825 92.9562L163.161 138.457L208.825 183.952Z" fill="#A03434"/>
</svg>
